<mxfile host="app.diagrams.net" modified="2023-08-22T18:02:46.808Z" agent="Mozilla/5.0 (Windows NT 10.0; Win64; x64) AppleWebKit/537.36 (KHTML, like Gecko) Chrome/116.0.0.0 Safari/537.36" version="21.6.8" etag="2O6i1YKRFhMv0_A2Ku4p" type="github">
  <diagram name="PÃ¡gina-1" id="4Q5YAHeNNs5B1U-7-Hvu">
    <mxGraphModel>
      <root>
        <mxCell id="0" />
        <mxCell id="1" parent="0" />
      </root>
    </mxGraphModel>
  </diagram>
</mxfile>
